<svg viewBox="0 0 223 52" fill="none" xmlns="http://www.w3.org/2000/svg"><path d="M97.708 40.14h-4.296V21.019h4.296v2.531a9.335 9.335 0 0 1 3.238-2.285 9.51 9.51 0 0 1 3.917-.752c4.612 0 7.242 3.002 7.242 7.945V40.14h-4.291V29.393c0-3.737-2.027-4.947-4.576-4.947a6.996 6.996 0 0 0-3.149.889 6.828 6.828 0 0 0-2.372 2.214l-.01 12.59ZM117.301 40.14V21.019h4.295v19.12h-4.295ZM117.301 17.383V13.35h4.295v4.034h-4.295ZM126 38.7v-3.99a13.99 13.99 0 0 0 7.953 2.296c2.715 0 4.295-.856 4.295-2.257 0-.74-.48-1.166-1.195-1.52a15.69 15.69 0 0 0-1.865-.581l-2.426-.586c-4.453-1.09-6.558-2.66-6.558-5.958 0-3.467 3.06-5.608 8.265-5.608 2.982 0 5.408.585 7.196 1.716v3.852a14.544 14.544 0 0 0-7.034-1.946c-2.665 0-4.019.856-4.019 2.101 0 .74.521 1.17 1.236 1.521.453.195 1.358.443 1.869.585l2.263.466c4.454.975 6.681 3.001 6.681 6.038 0 3.462-3.418 5.799-8.509 5.799-3.3.017-6.441-.798-8.152-1.929ZM149.576 24.72h-4.173V21.02h4.173V15.45h4.295v5.568h6.16v3.702h-6.16v8.995c0 2.181.992 3.077 3.06 3.077a6.306 6.306 0 0 0 2.942-.7v3.621c-.905.621-2.385.931-4.331.931-3.657 0-5.966-1.986-5.966-5.723V24.72ZM166.118 37.728a9.591 9.591 0 0 1-2.279-3.264 9.425 9.425 0 0 1-.744-3.887 9.39 9.39 0 0 1 .743-3.883 9.564 9.564 0 0 1 2.28-3.26c2.028-1.945 4.576-2.92 7.694-2.92 3.118 0 5.649.975 7.694 2.92a9.566 9.566 0 0 1 2.276 3.26c.519 1.23.77 2.553.739 3.883a9.57 9.57 0 0 1-.753 3.88 9.739 9.739 0 0 1-2.262 3.271c-2.027 1.946-4.571 2.917-7.694 2.917s-5.671-.97-7.694-2.917Zm12.288-2.611a6.151 6.151 0 0 0 1.386-2.096 6.05 6.05 0 0 0 .424-2.462 6.224 6.224 0 0 0-1.881-4.448 6.49 6.49 0 0 0-4.541-1.843 6.49 6.49 0 0 0-4.541 1.843 6.224 6.224 0 0 0-1.881 4.448 6.075 6.075 0 0 0 .437 2.455 6.201 6.201 0 0 0 1.388 2.089 6.346 6.346 0 0 0 2.114 1.386 6.456 6.456 0 0 0 2.501.459c.852.019 1.7-.134 2.489-.449a6.231 6.231 0 0 0 2.1-1.382h.005ZM188.373 40.14V21.018h4.295v3.312c1.313-2.216 4.173-3.817 7.196-3.817.134-.008.269.005.399.04v4.207c-.397-.049-.796-.076-1.195-.08-3.06 0-5.486 1.752-6.4 3.738V40.14h-4.295ZM69.402 13.349H59.17l2.458 4.034h7.775V13.35ZM83.993 13.349v15.898c0 5.103-2.9 7.87-7.314 7.87-4.413 0-7.277-2.776-7.277-7.87V20.94h-4.373v8.144c0 3.857 1.073 6.814 3.223 8.92s4.979 3.103 8.427 3.103c3.45 0 6.242-1.041 8.423-3.143 2.182-2.101 3.259-5.063 3.259-8.867V13.35h-4.368ZM223 38.708c0-.55-.032-1.104-.05-1.658V20.766h-4.29v12.577a6.83 6.83 0 0 1-2.375 2.216 6.985 6.985 0 0 1-3.152.888c-2.548 0-4.571-1.206-4.571-4.944V20.767h-4.295v11.682c0 2.9.905 5.13 2.575 6.481 1.503 1.206 3.254 1.33 4.657 1.463a9.807 9.807 0 0 0 5.373-.86 8.828 8.828 0 0 0 1.747-1.143v.265a6.456 6.456 0 0 1-.172 1.774c-.489 2.026-2.109 4.322-4.427 4.877a4.935 4.935 0 0 1-1.249.137s-7.694 0-8.341-.035l3.082 4.127c.647.035 5.259.062 5.259.062a10.4 10.4 0 0 0 6.839-2.66 11.375 11.375 0 0 0 3.146-5.812c.165-.795.247-1.605.244-2.416Z" fill="#373737"/><path d="M21.822 13.755a1.84 1.84 0 0 1-.55-.055l-1.95-.858a2.53 2.53 0 0 1 1.102-.483c.223-.027.45-.021.67.019l1.855.91a2.295 2.295 0 0 1-1.126.466Z" stroke="#373737"/><path d="M50.602 26.587a26.25 26.25 0 0 0-1.317-7.608 1.085 1.085 0 0 0-.435-.548 1.122 1.122 0 0 0-1.34.092c-.182.157-.306.37-.352.603a15.708 15.708 0 0 1-4.137 7.98c-1.172 1.183-5.44 5.063-11.424 4.668-1.226-.084-4.073-.275-6.603-2.403a9.764 9.764 0 0 1-2.716-3.71 10.34 10.34 0 0 1-.452-1.286c.288.005.577-.006.864-.031.174-.012.342-.067.489-.16a13.628 13.628 0 0 1 12.378-.887 1.13 1.13 0 0 0 1.308-.328l2.979-3.728a1.058 1.058 0 0 0 .113-1.148l-1.136-2.217a1.092 1.092 0 0 0-.48-.474L27.239 9.789l3.62-8.295c.096-.226.11-.476.041-.711A1.083 1.083 0 0 0 30.48.2a1.12 1.12 0 0 0-1.372.07l-7.617 6.862-1.25-.59.304-2.305a1.062 1.062 0 0 0-.362-.94 1.112 1.112 0 0 0-.996-.243 25.52 25.52 0 0 0-8.341 3.688 25.423 25.423 0 0 0-4.35 3.804C2.508 14.793.208 20.301.016 26.068a25.207 25.207 0 0 0 .664 6.69 24.466 24.466 0 0 0 6.448 11.696 25.247 25.247 0 0 0 11.715 6.707 26.191 26.191 0 0 0 12.483.164c.823-.19 1.636-.422 2.435-.696 5.337-1.884 9.904-5.42 13.007-10.072a23.73 23.73 0 0 0 3.169-7.351 25.36 25.36 0 0 0 .665-6.619Zm-19.154 7.342a15.225 15.225 0 0 0 6.024-.82 19.055 19.055 0 0 0 7.142-4.523 17.347 17.347 0 0 0 3.485-5.169c.533 3.304.367 6.68-.489 9.918a18.522 18.522 0 0 1-3.725 1.99 17.353 17.353 0 0 1-7.694 1.184 17.033 17.033 0 0 1-8.902-3.378c.262.093.53.181.8.261a15.95 15.95 0 0 0 3.359.537Zm-.634 15.295a23.836 23.836 0 0 1-11.555-.194 23.49 23.49 0 0 1-10.047-5.596A22.458 22.458 0 0 1 2.83 32.275a23.09 23.09 0 0 1-.593-6.131c.167-5.256 2.255-10.278 5.884-14.152a23.899 23.899 0 0 1 3.974-3.475 23.019 23.019 0 0 1 5.508-2.767l.543-.177-.19 1.454c-.034.228.007.46.118.663.11.202.285.365.498.463L21.21 9.4a1.134 1.134 0 0 0 1.227-.177l4.376-3.946-2.01 4.584c-.108.251-.117.534-.023.79.094.258.284.471.53.598l11.682 5.918.666 1.286-2.019 2.536a15.877 15.877 0 0 0-6.828-.876 15.8 15.8 0 0 0-6.546 2.095 7.103 7.103 0 0 1-1.544-.093.609.609 0 0 0-.117 0 5.636 5.636 0 0 1-2.237-.908 5.502 5.502 0 0 1-1.633-1.752 5.418 5.418 0 0 1-.42-3.902 1.06 1.06 0 0 0-.085-.855 1.087 1.087 0 0 0-.695-.526 1.128 1.128 0 0 0-.866.137 1.094 1.094 0 0 0-.491.712 7.43 7.43 0 0 0 .62 5.471 7.584 7.584 0 0 0 1.977 2.237 7.757 7.757 0 0 0 2.703 1.319c.036.168.077.341.117.51-.049 1.985.172 3.968.657 5.896a19.737 19.737 0 0 0 1.85 4.722 17.31 17.31 0 0 0 3.748 4.663 19.21 19.21 0 0 0 8.382 4.185c2.048.446 4.158.554 6.242.32a23.014 23.014 0 0 1-9.659 4.88Zm12.447-7.643c-2.726.824-5.622.949-8.41.362a16.784 16.784 0 0 1-7.517-3.714 15.377 15.377 0 0 1-4.037-5.644c2.462 2.492 6.694 5.617 12.709 6.078a19.486 19.486 0 0 0 7.838-1.02c.29-.097.575-.203.86-.314.598-.235 1.182-.51 1.761-.798a21.782 21.782 0 0 1-1.557 2.868 21.576 21.576 0 0 1-1.647 2.182Z" fill="#373737"/></svg>
